<svg width="168" height="168" viewBox="0 0 168 168" fill="none" xmlns="http://www.w3.org/2000/svg">
<g filter="url(#filter0_d)">
<circle cx="84" cy="78" r="65" fill="url(#paint0_linear)"/>
<path d="M109.748 93.3151C103.174 107.97 85.9867 114.483 71.332 107.909C56.6774 101.336 50.1642 84.1484 56.7377 69.4937C58.8484 64.8501 62.0447 60.9904 65.8441 58.0957C65.8441 58.0957 65.8441 58.0957 65.9044 58.0354L65.9647 57.975C67.5327 56.7689 79.172 46.8182 76.5185 37.4706C76.7597 37.7118 82.7301 43.7425 81.7652 52.3665C81.4033 55.6231 80.0766 59.3018 77.0009 63.1615C76.1566 64.247 75.4329 65.3325 74.8299 66.2974C67.7136 78.2383 78.5689 82.9422 80.3178 82.8216C80.3781 82.2185 82.127 65.031 95.9374 64.5485C95.9374 64.5485 89.4242 80.5903 100.943 83.7262C100.943 83.7262 107.939 78.962 102.873 59.9652C111.858 68.2273 114.994 81.6155 109.748 93.3151Z" fill="white"/>
<path opacity="0.6" d="M70.1857 92.1088C56.6769 86.9224 65.4817 76.6702 65.4817 76.6702C69.2208 73.1121 74.8293 66.3577 74.8293 66.3577C67.7131 78.2985 78.5684 83.0024 80.3173 82.8818C79.8348 94.8227 70.1857 92.1088 70.1857 92.1088Z" fill="url(#paint1_linear)"/>
<path opacity="0.6" d="M100.942 83.7263C98.5299 87.1638 92.0771 91.4456 89.7251 83.0026C87.3128 74.5596 95.997 64.5486 95.997 64.5486C95.997 64.5486 89.4236 80.5903 100.942 83.7263Z" fill="url(#paint2_linear)"/>
</g>
<defs>
<filter id="filter0_d" x="0.647058" y="0.764706" width="166.706" height="166.706" filterUnits="userSpaceOnUse" color-interpolation-filters="sRGB">
<feFlood flood-opacity="0" result="BackgroundImageFix"/>
<feColorMatrix in="SourceAlpha" type="matrix" values="0 0 0 0 0 0 0 0 0 0 0 0 0 0 0 0 0 0 127 0"/>
<feOffset dy="6.11765"/>
<feGaussianBlur stdDeviation="9.17647"/>
<feColorMatrix type="matrix" values="0 0 0 0 0 0 0 0 0 0 0 0 0 0 0 0 0 0 0.25 0"/>
<feBlend mode="normal" in2="BackgroundImageFix" result="effect1_dropShadow"/>
<feBlend mode="normal" in="SourceGraphic" in2="effect1_dropShadow" result="shape"/>
</filter>
<linearGradient id="paint0_linear" x1="84" y1="13" x2="84" y2="143" gradientUnits="userSpaceOnUse">
<stop stop-color="#3F84AC"/>
<stop offset="1" stop-color="#3C73A5"/>
</linearGradient>
<linearGradient id="paint1_linear" x1="62.6499" y1="79.3511" x2="80.3274" y2="79.3511" gradientUnits="userSpaceOnUse">
<stop stop-color="#4183C1"/>
<stop offset="1" stop-color="#4183C1"/>
</linearGradient>
<linearGradient id="paint2_linear" x1="89.2645" y1="76.2533" x2="100.922" y2="76.2533" gradientUnits="userSpaceOnUse">
<stop stop-color="#4183C1"/>
<stop offset="1" stop-color="#4183C1"/>
</linearGradient>
</defs>
</svg>
