<svg width="155" height="155" viewBox="0 0 155 155" fill="none" xmlns="http://www.w3.org/2000/svg">
<g filter="url(#filter0_d)">
<circle cx="77.1821" cy="73.182" r="65" fill="black"/>
<path fill-rule="evenodd" clip-rule="evenodd" d="M57.723 47.1822C57.4155 47.1867 57.1219 47.3108 56.9045 47.5283L51.5283 52.9045C51.3066 53.1261 51.1821 53.4267 51.1821 53.7402C51.1821 54.0536 51.3066 54.3542 51.5283 54.5759L70.1382 73.1786L51.5283 91.7885C51.3067 92.0102 51.1822 92.3107 51.1822 92.6241C51.1822 92.9375 51.3067 93.2381 51.5283 93.4598L56.9045 98.836C57.1261 99.0576 57.4268 99.1821 57.7402 99.1821C58.0536 99.1821 58.3543 99.0576 58.5759 98.836L77.1786 80.226L95.7886 98.836C96.0102 99.0575 96.3108 99.182 96.6242 99.182C96.9376 99.182 97.2381 99.0575 97.4598 98.836L102.836 93.4598C103.058 93.2381 103.182 92.9375 103.182 92.6241C103.182 92.3107 103.058 92.0102 102.836 91.7885L84.226 73.1786L102.836 54.5759C103.058 54.3542 103.182 54.0536 103.182 53.7402C103.182 53.4267 103.058 53.1261 102.836 52.9045L97.4598 47.5283C97.2381 47.3067 96.9376 47.1822 96.6242 47.1822C96.3108 47.1822 96.0102 47.3067 95.7886 47.5283L77.1786 66.1382L58.5759 47.5283C58.4641 47.4165 58.331 47.3282 58.1845 47.2688C58.038 47.2093 57.8811 47.1799 57.723 47.1822Z" fill="#F2F2F2"/>
</g>
<defs>
<filter id="filter0_d" x="0.182129" y="0.182037" width="154" height="154" filterUnits="userSpaceOnUse" color-interpolation-filters="sRGB">
<feFlood flood-opacity="0" result="BackgroundImageFix"/>
<feColorMatrix in="SourceAlpha" type="matrix" values="0 0 0 0 0 0 0 0 0 0 0 0 0 0 0 0 0 0 127 0"/>
<feOffset dy="4"/>
<feGaussianBlur stdDeviation="6"/>
<feColorMatrix type="matrix" values="0 0 0 0 0 0 0 0 0 0 0 0 0 0 0 0 0 0 0.12 0"/>
<feBlend mode="normal" in2="BackgroundImageFix" result="effect1_dropShadow"/>
<feBlend mode="normal" in="SourceGraphic" in2="effect1_dropShadow" result="shape"/>
</filter>
</defs>
</svg>
