<svg width="20" height="20" viewBox="0 0 20 20" fill="none" xmlns="http://www.w3.org/2000/svg">
<g opacity="0.4">
<path fill-rule="evenodd" clip-rule="evenodd" d="M2.51572 4.776e-05C2.39747 0.00177451 2.28454 0.0495288 2.20091 0.13316L0.133128 2.20093C0.0478871 2.28618 0 2.40181 0 2.52237C0 2.64292 0.0478871 2.75853 0.133128 2.84378L7.29081 9.99868L0.133128 17.1564C0.0479115 17.2416 3.97725e-05 17.3572 3.97725e-05 17.4777C3.97725e-05 17.5983 0.0479115 17.7139 0.133128 17.7991L2.20091 19.8669C2.28616 19.9521 2.40178 20 2.52234 20C2.64289 20 2.75851 19.9521 2.84376 19.8669L9.99865 12.7092L17.1563 19.8669C17.2416 19.9521 17.3572 20 17.4777 20C17.5982 20 17.7138 19.9521 17.7991 19.8669L19.8669 17.7991C19.9521 17.7139 20 17.5983 20 17.4777C20 17.3572 19.9521 17.2416 19.8669 17.1564L12.7092 9.99868L19.8669 2.84378C19.9521 2.75853 20 2.64292 20 2.52237C20 2.40181 19.9521 2.28618 19.8669 2.20093L17.7991 0.13316C17.7138 0.047945 17.5982 7.55032e-05 17.4777 7.55032e-05C17.3572 7.55032e-05 17.2416 0.047945 17.1563 0.13316L9.99865 7.29083L2.84376 0.13316C2.80077 0.0901612 2.74958 0.0562165 2.69323 0.0333535C2.63689 0.0104905 2.57653 -0.000833562 2.51572 4.776e-05Z" fill="#333333"/>
</g>
</svg>
