<svg width="12" height="12" viewBox="0 0 12 12" fill="none" xmlns="http://www.w3.org/2000/svg">
<path d="M9.21384 10.5096H1.53605V3.0598H5.37495V1.56937H0V12H10.7499V6.78468H9.21384V10.5096Z" fill="#333333"/>
<path d="M11.8605 0.770148L11.205 0.134134C11.163 0.0922948 11.1129 0.0589125 11.0576 0.0359002C11.0022 0.0128879 10.9427 0.000697983 10.8825 2.91069e-05C10.8223 -0.000639769 10.7626 0.0102255 10.7067 0.0320022C10.6508 0.053779 10.6 0.0860392 10.557 0.126934L3.8389 6.64548L3.85498 7.90191L5.14986 7.91991L11.8692 1.40016C11.9114 1.35834 11.9447 1.30883 11.9672 1.25446C11.9896 1.2001 12.0008 1.14197 12 1.08341C11.9992 1.02485 11.9864 0.967023 11.9625 0.91326C11.9386 0.859497 11.9039 0.81086 11.8605 0.770148Z" fill="#333333"/>
</svg>
