<svg width="24" height="31" viewBox="0 0 24 31" fill="none" xmlns="http://www.w3.org/2000/svg">
<path d="M22.9483 23.0613C20.2338 29.113 13.1361 31.8027 7.08437 29.0881C1.03265 26.3735 -1.65701 19.2758 1.05755 13.2241C1.9292 11.3065 3.24912 9.71264 4.81808 8.51723C4.81808 8.51723 4.81808 8.51723 4.84299 8.49233L4.86789 8.46743C5.5154 7.96934 10.3219 3.86015 9.22613 0C9.32574 0.0996168 11.7913 2.59004 11.3928 6.15134C11.2434 7.49616 10.6955 9.01532 9.42536 10.6092C9.0767 11.0575 8.77785 11.5057 8.52881 11.9042C5.59011 16.8352 10.0729 18.7778 10.7951 18.728C10.82 18.4789 11.5422 11.3812 17.2453 11.182C17.2453 11.182 14.5556 17.8065 19.3123 19.1015C19.3123 19.1015 22.2012 17.1341 20.1093 9.28926C23.82 12.7011 25.115 18.2299 22.9483 23.0613Z" fill="url(#paint0_linear)"/>
<path opacity="0.6" d="M6.61081 22.5632C1.03227 20.4214 4.66828 16.1877 4.66828 16.1877C6.21234 14.7184 8.52843 11.9291 8.52843 11.9291C5.58973 16.8601 10.0725 18.8027 10.7947 18.7529C10.5955 23.6839 6.61081 22.5632 6.61081 22.5632Z" fill="#2789AE"/>
<path opacity="0.6" d="M19.3119 19.1015C18.3157 20.5211 15.651 22.2893 14.6797 18.8027C13.6835 15.3161 17.2697 11.182 17.2697 11.182C17.2697 11.182 14.5552 17.8065 19.3119 19.1015Z" fill="#2789AE"/>
<defs>
<linearGradient id="paint0_linear" x1="3.5" y1="4" x2="17.5" y2="32.5" gradientUnits="userSpaceOnUse">
<stop offset="0.665761" stop-color="#39639D"/>
<stop offset="1" stop-color="#2789AE"/>
</linearGradient>
</defs>
</svg>
