<svg width="25" height="25" viewBox="0 0 25 25" fill="none" xmlns="http://www.w3.org/2000/svg">
<circle cx="12.5" cy="12.5" r="12.5" fill="black"/>
<path d="M15.8221 16.2773H8.76533V9.43005H12.2937V8.06017H7.35352V17.6471H17.2339V12.8537H15.8221V16.2773Z" fill="white"/>
<path d="M18.2547 7.32559L17.6523 6.74102C17.6136 6.70257 17.5676 6.67188 17.5167 6.65073C17.4658 6.62958 17.4112 6.61838 17.3558 6.61776C17.3005 6.61715 17.2456 6.62714 17.1942 6.64715C17.1429 6.66717 17.0961 6.69682 17.0566 6.7344L10.8819 12.7257L10.8967 13.8805L12.0868 13.8971L18.2627 7.90465C18.3015 7.86621 18.3321 7.8207 18.3528 7.77074C18.3734 7.72077 18.3836 7.66734 18.3829 7.61352C18.3822 7.55969 18.3704 7.50654 18.3484 7.45713C18.3264 7.40772 18.2946 7.36301 18.2547 7.32559Z" fill="white"/>
</svg>
