<svg width="9" height="12" viewBox="0 0 9 12" fill="none" xmlns="http://www.w3.org/2000/svg">
<path d="M2.79488 8.99601C3.31228 8.99601 3.79544 8.85207 4.21153 8.60612L7.19191 11.5862C7.32851 11.7228 7.50703 11.7909 7.68591 11.7909C7.86478 11.7909 8.0433 11.7228 8.1799 11.5862C8.45275 11.3133 8.45275 10.871 8.1799 10.5982L5.19986 7.61848C5.44581 7.20205 5.58975 6.71853 5.58975 6.20113C5.58975 4.66011 4.3359 3.40626 2.79488 3.40626C1.25385 3.40626 0 4.66011 0 6.20113C0 7.74216 1.25385 8.99601 2.79488 8.99601ZM2.79488 4.8037C3.56556 4.8037 4.19231 5.43045 4.19231 6.20113C4.19231 6.97182 3.56556 7.59857 2.79488 7.59857C2.02419 7.59857 1.39744 6.97182 1.39744 6.20113C1.39744 5.43045 2.02419 4.8037 2.79488 4.8037Z" fill="white"/>
<circle cx="0.681251" cy="0.681251" r="0.681251" fill="white"/>
<rect x="2.04346" width="6.13126" height="1.3625" rx="0.681251" fill="white"/>
</svg>
