<svg width="17" height="15" viewBox="0 0 17 15" fill="none" xmlns="http://www.w3.org/2000/svg">
<path d="M3.78781 3.34H0.327812V0.439999H3.78781V3.34ZM3.72781 15H0.387813V4.76H3.72781V15ZM6.48156 4.76H9.78156V6.34C10.0482 5.78 10.4616 5.34 11.0216 5.02C11.5816 4.68667 12.2216 4.52 12.9416 4.52C14.1282 4.52 15.0549 4.86667 15.7216 5.56C16.4016 6.25333 16.7416 7.21333 16.7416 8.44V15H13.3816V9.24C13.3816 8.52 13.2416 7.98667 12.9616 7.64C12.6816 7.28 12.2549 7.1 11.6816 7.1C11.0949 7.1 10.6349 7.30667 10.3016 7.72C9.98156 8.13333 9.82156 8.73333 9.82156 9.52V15H6.48156V4.76Z" fill="white"/>
</svg>
