<svg width="55" height="55" viewBox="0 0 55 55" fill="none" xmlns="http://www.w3.org/2000/svg">
<circle cx="27.1941" cy="27.1941" r="27.0941" fill="white" stroke="#333333" stroke-width="0.2"/>
<path d="M18.7812 16.532L18.7812 16.532L16.5319 18.7813C16.5319 18.7813 16.5319 18.7813 16.5319 18.7813C16.458 18.8553 16.4164 18.9556 16.4164 19.0602C16.4164 19.1648 16.458 19.2651 16.5319 19.3391C16.5319 19.3391 16.5319 19.3391 16.5319 19.3391L24.3178 27.122L24.3885 27.1927L24.3178 27.2634L16.5319 35.0493C16.5319 35.0493 16.5319 35.0493 16.5319 35.0493C16.458 35.1232 16.4164 35.2235 16.4164 35.3281C16.4164 35.4327 16.458 35.5331 16.5319 35.607C16.5319 35.607 16.5319 35.6071 16.5319 35.6071L18.7812 37.8563C18.8552 37.9302 18.9555 37.9718 19.0601 37.9718C19.1647 37.9718 19.265 37.9303 19.339 37.8563C19.339 37.8563 19.339 37.8563 19.339 37.8563L27.1219 30.0704L27.1926 29.9997L27.2633 30.0704L35.0491 37.8563C35.0492 37.8563 35.0492 37.8563 35.0492 37.8563C35.1231 37.9302 35.2234 37.9718 35.328 37.9718C35.4326 37.9718 35.5329 37.9302 35.6069 37.8563L35.6069 37.8563M18.7812 16.532L35.6776 37.927L35.6069 37.8563M18.7812 16.532C18.8538 16.4595 18.9518 16.418 19.0544 16.4165L18.7812 16.532ZM35.6069 37.8563L37.8562 35.6071L35.6069 37.8563ZM37.9717 35.3281C37.9717 35.4327 37.9301 35.5331 37.8562 35.607V35.0493C37.9301 35.1232 37.9717 35.2235 37.9717 35.3281ZM30.0703 27.2634L37.8562 35.0493L19.0544 16.4165C19.1071 16.4158 19.1595 16.4256 19.2084 16.4454C19.2573 16.4653 19.3017 16.4947 19.339 16.532L27.1219 24.3179L27.1926 24.3886L27.2633 24.3179L35.0491 16.5321C35.1231 16.4581 35.2234 16.4166 35.328 16.4166C35.4326 16.4166 35.533 16.4581 35.6069 16.5321L37.8562 18.7813C37.9301 18.8553 37.9717 18.9556 37.9717 19.0602C37.9717 19.1648 37.9302 19.2651 37.8562 19.3391C37.8562 19.3391 37.8562 19.3391 37.8562 19.3391L30.0703 27.122L29.9996 27.1927L30.0703 27.2634Z" fill="black" stroke="#333333" stroke-width="0.2"/>
</svg>
