<svg width="25" height="25" viewBox="0 0 25 25" fill="none" xmlns="http://www.w3.org/2000/svg">
<circle cx="12.5" cy="12.5" r="12.5" fill="url(#paint0_linear)"/>
<path d="M17.4524 15.4451C16.1882 18.2633 12.8829 19.5159 10.0647 18.2517C7.24651 16.9876 5.99398 13.6823 7.25811 10.8641C7.66403 9.9711 8.2787 9.22885 9.00934 8.67217C9.00934 8.67217 9.00934 8.67217 9.02094 8.66057L9.03254 8.64898C9.33407 8.41702 11.5724 6.50343 11.0621 4.70581C11.1085 4.7522 12.2567 5.91196 12.0711 7.5704C12.0015 8.19667 11.7464 8.90412 11.1549 9.64636C10.9925 9.85512 10.8533 10.0639 10.7374 10.2494C9.36886 12.5457 11.4564 13.4504 11.7928 13.4272C11.8043 13.3112 12.1407 10.0059 14.7965 9.91311C14.7965 9.91311 13.544 12.9981 15.7591 13.6011C15.7591 13.6011 17.1044 12.6849 16.1302 9.03169C17.8583 10.6206 18.4613 13.1952 17.4524 15.4451Z" fill="white"/>
<path opacity="0.6" d="M9.84332 15.2132C7.24548 14.2158 8.93872 12.2442 8.93872 12.2442C9.65776 11.5599 10.7363 10.261 10.7363 10.261C9.36783 12.5573 11.4554 13.4619 11.7917 13.4387C11.6989 15.7351 9.84332 15.2132 9.84332 15.2132Z" fill="url(#paint1_linear)"/>
<path opacity="0.6" d="M15.7581 13.6011C15.2942 14.2622 14.0532 15.0856 13.6009 13.462C13.137 11.8383 14.8071 9.91312 14.8071 9.91312C14.8071 9.91312 13.543 12.9981 15.7581 13.6011Z" fill="url(#paint2_linear)"/>
<defs>
<linearGradient id="paint0_linear" x1="12.5" y1="0" x2="12.5" y2="25" gradientUnits="userSpaceOnUse">
<stop stop-color="#3F84AC"/>
<stop offset="1" stop-color="#3C73A5"/>
</linearGradient>
<linearGradient id="paint1_linear" x1="8.39413" y1="12.7598" x2="11.7936" y2="12.7598" gradientUnits="userSpaceOnUse">
<stop stop-color="#4183C1"/>
<stop offset="1" stop-color="#4183C1"/>
</linearGradient>
<linearGradient id="paint2_linear" x1="13.5124" y1="12.164" x2="15.7542" y2="12.164" gradientUnits="userSpaceOnUse">
<stop stop-color="#4183C1"/>
<stop offset="1" stop-color="#4183C1"/>
</linearGradient>
</defs>
</svg>
